:SAMPLES-PER-SECOND 30
:FRAME-RANGE 1-663
:FULLY-SPECIFIED
:DEGREES
477
root  34.2152 38.7508 -61.9113 176.884 -7.12579 -179.321
RightUpLeg  -17.0639 -6.9163 -4.67549
RightLeg  11.7514 -2.31704 -0.159864
RightFoot  7.41622 -1.35455 8.4959
RightToes  2.91037e-010 0 -3.6325e-017
Spine  6.61208 1.04626 7.76948
Spine1  1.04841 3.05787 -7.38414
HEad  9.47026 36.003 -4.95883
LeftShoulder1  1.20274 0.361004 -32.2095
LeftArm  -19.3366 2.62414 -19.7814
LeftForeArm  -19.1667 -35.0193 -8.88609
LeftHand  0.289301 3.041 -15.5906
RightShoulder  9.77112 14.1611 48.4232
RightArm  15.5365 3.05036 19.6746
RightForeArm  -12.0274 33.5301 8.1106
RightHand  0.518163 1.54623 8.53619
LeftUpLeg  7.75809 -4.58937 0.981264
LeftLeg  23.1601 -2.81565 -0.986391
LeftFoot  -21.7776 -0.389498 -5.69114
LeftToes  -4.9116e-011 5.71383e-011 -3.31847e-011
478
root  34.7631 38.7009 -62.9109 176.709 -9.69882 -178.313
RightUpLeg  -17.2265 -9.37605 -3.19128
RightLeg  16.1255 -2.4359 -0.0816993
RightFoot  3.86531 -0.95702 7.35795
RightToes  2.91037e-010 0 -3.6325e-017
Spine  7.20041 1.51279 9.88827
Spine1  1.52036 4.00334 -7.63795
HEad  9.45588 33.7792 -4.64831
LeftShoulder1  1.2047 0.284313 -31.3582
LeftArm  -22.4658 -0.265449 -17.9879
LeftForeArm  -25.1247 -31.8877 -8.25984
LeftHand  0.206143 3.85497 -18.195
RightShoulder  12.2479 18.5035 48.6709
RightArm  12.3163 7.99511 20.3415
RightForeArm  -11.9606 34.0297 8.24831
RightHand  0.576755 1.38074 9.76236
LeftUpLeg  3.77282 -4.65188 4.05295
LeftLeg  32.3441 -3.90869 -2.3154
LeftFoot  -18.7264 -0.617123 -11.2679
LeftToes  -4.9116e-011 5.71383e-011 -3.31847e-011
479
root  35.332 38.6751 -63.828 176.682 -13.1445 -177.119
RightUpLeg  -16.8729 -10.7422 -1.82674
RightLeg  18.908 -4.53796 -0.387485
RightFoot  0.894821 -0.69047 6.49129
RightToes  2.91037e-010 0 -3.6325e-017
Spine  8.40313 1.87564 11.6234
Spine1  0.748731 4.69253 -7.15714
HEad  9.85864 30.7643 -3.8266
LeftShoulder1  1.25437 0.0899467 -30.6806
LeftArm  -24.0006 -4.28005 -15.9089
LeftForeArm  -28.3794 -29.206 -7.67728
LeftHand  0.215625 3.93589 -20.1028
RightShoulder  14.2822 22.403 48.1354
RightArm  9.72817 13.5173 21.1721
RightForeArm  -10.0534 33.8091 8.08677
RightHand  0.717422 1.87541 11.2829
LeftUpLeg  -2.51979 -4.79183 7.25086
LeftLeg  42.5902 -3.41078 -2.96843
LeftFoot  -10.6304 0.154516 -14.6178
LeftToes  -4.9116e-011 5.71383e-011 -3.31847e-011
480
root  35.809 38.5947 -64.714 176.317 -17.1836 -175.912
RightUpLeg  -16.1987 -12.0923 -0.774388
RightLeg  21.568 -7.06932 -0.965002
RightFoot  -2.23675 -0.516858 6.29277
RightToes  2.91037e-010 0 -3.6325e-017
Spine  9.36073 1.841 14.4838
Spine1  0.413196 5.3451 -8.25261
HEad  9.77238 27.1054 -2.9285
LeftShoulder1  1.30484 -0.153208 -29.6073
LeftArm  -23.752 -9.26956 -14.1944
LeftForeArm  -28.4948 -27.794 -7.32301
LeftHand  0.25265 3.78716 -20.8313
RightShoulder  15.8741 26.1062 46.6845
RightArm  7.48027 19.6663 21.6996
RightForeArm  -10.88 33.0045 7.90541
RightHand  0.68677 1.62206 11.212
LeftUpLeg  -8.78466 -5.55623 9.54479
LeftLeg  50.6681 -1.53245 -1.56821
LeftFoot  -3.84682 0.714333 -10.5334
LeftToes  -4.9116e-011 5.71383e-011 -3.31847e-011
481
root  36.2969 38.7586 -65.6815 176.001 -20.603 -175.831
RightUpLeg  -14.0302 -13.2166 -0.805373
RightLeg  21.7598 -9.29252 -0.872966
RightFoot  -4.31331 -0.395547 5.95641
RightToes  2.91037e-010 0 -3.6325e-017
Spine  10.3825 2.38835 15.2574
Spine1  -0.219251 6.2455 -9.41579
HEad  9.67379 23.4841 -2.2164
LeftShoulder1  1.3985 -0.526759 -28.6098
LeftArm  -21.4452 -14.3966 -13.2247
LeftForeArm  -29.2648 -27.0427 -7.1659
LeftHand  0.0773072 4.70121 -20.4984
RightShoulder  16.9103 29.8179 43.9554
RightArm  6.12873 25.9128 22.1781
RightForeArm  -12.3798 29.9435 7.1668
RightHand  0.861135 2.22884 12.8958
LeftUpLeg  -13.5827 -4.79681 10.2812
LeftLeg  55.1435 0.605735 1.42206
LeftFoot  -3.37948 0.623794 -8.6618
LeftToes  -4.9116e-011 5.71383e-011 -3.31847e-011
482
root  36.7548 38.977 -66.6566 176.384 -23.6117 -176.321
RightUpLeg  -12.1186 -13.2672 -1.1174
RightLeg  21.1094 -12.1179 -0.886268
RightFoot  -5.74019 -0.312361 5.5812
RightToes  2.91037e-010 0 -3.6325e-017
Spine  10.9677 3.21612 15.2933
Spine1  -0.90989 7.1722 -10.7045
HEad  9.47478 20.3582 -1.76299
LeftShoulder1  1.4624 -0.824954 -27.6757
LeftArm  -19.2589 -18.6443 -13.434
LeftForeArm  -29.8643 -24.0568 -6.48627
LeftHand  0.273329 3.66644 -20.6774
RightShoulder  17.4735 33.3293 40.7258
RightArm  5.40011 31.3882 21.8124
RightForeArm  -13.9804 25.4247 6.13992
RightHand  0.978824 2.62557 13.9076
LeftUpLeg  -17.9108 -2.91426 9.82224
LeftLeg  56.0688 1.31031 2.59587
LeftFoot  -4.70826 0.565266 -9.25413
LeftToes  -4.9116e-011 5.71383e-011 -3.31847e-011
483
root  37.1466 39.1835 -67.6176 177.002 -26.3986 -176.757
RightUpLeg  -10.4189 -12.2482 -1.11688
RightLeg  20.1343 -15.8336 -1.20087
RightFoot  -6.92288 -0.26854 5.73432
RightToes  2.91037e-010 0 -3.6325e-017
Spine  11.2246 3.96064 15.5417
Spine1  -1.24715 8.04166 -12.4194
HEad  9.07466 17.9658 -1.56469
LeftShoulder1  1.49104 -0.927661 -27.5363
LeftArm  -17.5237 -21.6988 -13.35
LeftForeArm  -30.9956 -23.4022 -6.53112
LeftHand  0.31519 3.50141 -21.3495
RightShoulder  17.5936 36.7476 36.9956
RightArm  -0.412924 35.5951 20.819
RightForeArm  -12.1682 20.0001 7.21309
RightHand  1.07911 2.81832 14.9624
LeftUpLeg  -21.2551 -0.699426 8.60508
LeftLeg  53.8034 0.563924 1.29892
LeftFoot  -5.36962 0.464804 -8.28507
LeftToes  -4.9116e-011 5.71383e-011 -3.31847e-011
484
root  37.4664 39.4128 -68.5545 177.937 -29.3154 -177.457
RightUpLeg  -8.53741 -11.1777 -1.43859
RightLeg  18.2737 -19.7961 -0.793753
RightFoot  -7.63041 -0.227936 5.4292
RightToes  2.91037e-010 0 -3.6325e-017
Spine  11.4025 4.69261 15.4452
Spine1  -1.75546 8.82163 -14.3309
HEad  8.32932 15.4358 -1.36835
LeftShoulder1  1.55392 -1.08909 -27.73
LeftArm  -15.2043 -24.5566 -13.2342
LeftForeArm  -31.8257 -24.0976 -6.56824
LeftHand  0.313912 3.5305 -21.627
RightShoulder  16.9801 38.7454 33.4478
RightArm  -16.3799 38.7168 19.4162
RightForeArm  -1.34725 13.124 10.5503
RightHand  1.32712 3.04852 17.8791
LeftUpLeg  -23.6034 1.31897 6.3496
LeftLeg  48.5103 -0.264257 0.100503
LeftFoot  -5.7557 0.409453 -7.67944
LeftToes  -4.9116e-011 5.71383e-011 -3.31847e-011
485
root  37.7152 39.6402 -69.4756 178.822 -32.6988 -178.184
RightUpLeg  -6.10391 -10.4427 -1.74126
RightLeg  15.4112 -23.9477 0.148268
RightFoot  -7.957 -0.203968 5.06879
RightToes  2.91037e-010 0 -3.6325e-017
Spine  11.4235 5.01109 15.5386
Spine1  -1.91886 9.34572 -16.714
HEad  7.47622 13.492 -0.918751
LeftShoulder1  1.59618 -1.23675 -27.5647
LeftArm  -14.4142 -27.1121 -13.6929
LeftForeArm  -31.618 -24.4857 -6.63848
LeftHand  0.338926 3.38508 -21.4149
RightShoulder  16.141 40.0331 30.2712
RightArm  -26.2148 40.7597 18.341
RightForeArm  1.9982 8.01814 11.5759
RightHand  1.51398 3.05192 20.3676
LeftUpLeg  -24.6181 3.00668 3.51631
LeftLeg  40.7149 -1.09346 -0.63512
LeftFoot  -6.22127 0.387748 -7.83121
LeftToes  -4.9116e-011 5.71383e-011 -3.31847e-011
486
root  37.9105 39.8553 -70.3915 -179.951 -35.8345 -178.883
RightUpLeg  -4.00992 -9.97809 -1.51958
RightLeg  12.014 -27.445 1.23188
RightFoot  -7.99082 -0.189169 4.60747
RightToes  2.91037e-010 0 -3.6325e-017
Spine  11.1325 5.49456 14.8221
Spine1  -2.15527 9.82439 -18.2057
HEad  6.77921 12.0151 -0.528493
LeftShoulder1  1.65158 -1.41806 -27.4484
LeftArm  -14.8333 -28.3843 -14.4535
LeftForeArm  -30.2064 -25.8593 -6.91319
LeftHand  0.370871 3.21327 -21.3315
RightShoulder  15.6884 41.3619 28.0695
RightArm  -29.3697 40.5927 17.6155
RightForeArm  -0.204894 6.03415 11.6079
RightHand  1.72064 2.82549 23.746
LeftUpLeg  -24.6037 5.3555 0.416459
LeftLeg  31.0636 -3.16114 -1.71504
LeftFoot  -5.98222 0.445185 -8.73548
LeftToes  -4.9116e-011 5.71383e-011 -3.31847e-011
487
root  37.985 40.0042 -71.2818 -178.901 -39.0444 -179.536
RightUpLeg  -1.75695 -9.74402 -1.36139
RightLeg  8.60267 -30.6263 2.76484
RightFoot  -8.2565 -0.175109 4.41632
RightToes  2.91037e-010 0 -3.6325e-017
Spine  10.3996 5.64282 13.6989
Spine1  -1.78183 9.95489 -18.8274
HEad  6.02813 11.1176 -0.231181
LeftShoulder1  1.66492 -1.46862 -27.3739
LeftArm  -16.9834 -28.272 -14.8051
LeftForeArm  -27.0134 -28.1893 -7.36459
LeftHand  0.517229 2.42601 -21.0806
RightShoulder  15.6838 42.7745 26.8937
RightArm  -29.5172 39.2035 17.7978
RightForeArm  -4.28039 6.06647 11.7036
RightHand  1.86553 2.58918 26.4562
LeftUpLeg  -23.2176 6.64809 -2.56709
LeftLeg  20.9302 -5.72773 -2.09405
LeftFoot  -4.79781 0.641378 -10.6946
LeftToes  -4.9116e-011 5.71383e-011 -3.31847e-011
488
root  37.9432 40.0471 -72.1481 -178.504 -41.448 -179.746
RightUpLeg  0.253489 -9.30652 -0.847059
RightLeg  6.49305 -32.9167 3.80306
RightFoot  -8.9781 -0.15603 4.60396
RightToes  2.91037e-010 0 -3.6325e-017
Spine  9.81328 5.77532 13.0532
Spine1  -1.38446 10.1629 -19.2415
HEad  5.73156 10.9402 0.129187
LeftShoulder1  1.62657 -1.31375 -27.6608
LeftArm  -17.9035 -27.6313 -14.4691
LeftForeArm  -23.0752 -31.5459 -8.07884
LeftHand  0.669001 1.58328 -20.7885
RightShoulder  16.1216 41.9375 28.5548
RightArm  -27.3032 39.3186 18.6801
RightForeArm  -7.94035 7.50598 11.9945
RightHand  1.8447 2.38219 26.8635
LeftUpLeg  -20.6602 4.84109 -3.59495
LeftLeg  12.0902 -6.64851 -2.21273
LeftFoot  -2.43094 0.962095 -12.1267
LeftToes  -4.9116e-011 5.71383e-011 -3.31847e-011
489
root  37.7953 39.9498 -73.0358 -179.227 -43.1002 -178.995
RightUpLeg  2.2074 -8.64629 0.40244
RightLeg  5.74011 -34.7348 4.18072
RightFoot  -10.2756 -0.116773 5.04657
RightToes  2.91037e-010 0 -3.6325e-017
Spine  9.33109 6.03665 12.6621
Spine1  -1.0355 10.3722 -18.8191
HEad  5.70627 10.8854 0.481245
LeftShoulder1  1.56301 -1.13996 -27.5508
LeftArm  -16.402 -26.2016 -14.7595
LeftForeArm  -21.2768 -35.0859 -9.00499
LeftHand  0.545539 2.16792 -20.3262
RightShoulder  16.7618 41.0253 30.7865
RightArm  -22.2856 38.2577 19.4216
RightForeArm  -4.70804 9.87722 11.7025
RightHand  1.60181 1.84738 25.1494
LeftUpLeg  -17.9275 0.977011 -2.87014
LeftLeg  6.75498 -7.26875 -2.76756
LeftFoot  -0.0713065 1.35195 -13.647
LeftToes  -4.9116e-011 5.71383e-011 -3.31847e-011
490
root  37.5602 39.8051 -73.8971 179.598 -44.6665 -178.055
RightUpLeg  4.4398 -8.0895 1.55981
RightLeg  5.28744 -35.1266 4.53237
RightFoot  -11.7691 -0.0597673 5.39341
RightToes  2.91037e-010 0 -3.6325e-017
Spine  8.90105 6.07848 11.807
Spine1  -0.582866 10.2617 -17.7312
HEad  6.10827 10.9752 1.18115
LeftShoulder1  1.51384 -1.02782 -27.2896
LeftArm  -15.5622 -23.5356 -15.1953
LeftForeArm  -21.6227 -38.5277 -10.1025
LeftHand  0.411942 2.84403 -19.9362
RightShoulder  17.1653 39.688 32.9529
RightArm  -13.3099 36.3152 20.3108
RightForeArm  -14.6631 13.9669 11.0162
RightHand  1.5088 1.52592 24.8339
LeftUpLeg  -15.9188 0.617691 -3.39437
LeftLeg  5.93162 -12.2989 -3.6262
LeftFoot  5.17194 0.762245 -5.46778
LeftToes  -4.9116e-011 5.71383e-011 -3.31847e-011
